<?xml version="1.0" encoding="utf-8"?>
<!-- Generator: Adobe Illustrator 15.0.2, SVG Export Plug-In . SVG Version: 6.00 Build 0)  -->
<!DOCTYPE svg PUBLIC "-//W3C//DTD SVG 1.1//EN" "http://www.w3.org/Graphics/SVG/1.1/DTD/svg11.dtd">
<svg version="1.1" id="Livello_1" xmlns="http://www.w3.org/2000/svg" xmlns:xlink="http://www.w3.org/1999/xlink" x="0px" y="0px"
	 width="32px" height="32px" viewBox="0 0 32 32" enable-background="new 0 0 32 32" xml:space="preserve">
<path fill="#393A3C" d="M27.314,4.686C30.336,7.708,32,11.726,32,16c0,4.273-1.664,8.292-4.686,11.314
	C24.292,30.336,20.273,32,16,32c-4.274,0-8.292-1.664-11.314-4.686C1.664,24.292,0,20.273,0,16c0-4.274,1.664-8.292,4.686-11.314
	S11.726,0,16,0C20.273,0,24.292,1.664,27.314,4.686z M25.898,25.9c1.972-1.971,3.281-4.426,3.822-7.096
	c-0.422,0.619-0.824,0.85-1.074-0.539c-0.256-2.262-2.334-0.816-3.641-1.621c-1.375,0.928-4.466-1.802-3.941,1.276
	c0.811,1.388,4.375-1.858,2.599,1.079c-1.134,2.05-4.146,6.592-3.753,8.945c0.049,3.431-3.504,0.716-4.729-0.422
	c-0.824-2.278-0.281-6.262-2.434-7.377c-2.338-0.103-4.344-0.314-5.25-2.928c-0.545-1.87,0.58-4.653,2.584-5.083
	c2.933-1.843,3.98,2.158,6.731,2.232c0.854-0.894,3.182-1.178,3.375-2.18c-1.806-0.318,2.289-1.517-0.174-2.199
	c-1.357,0.16-2.234,1.409-1.512,2.467c-2.632,0.614-2.717-3.809-5.247-2.414c-0.064,2.206-4.132,0.715-1.407,0.268
	c0.936-0.409-1.527-1.594-0.196-1.379c0.654-0.036,2.854-0.807,2.259-1.325c1.225-0.761,2.255,1.822,3.454-0.059
	c0.865-1.446-0.363-1.713-1.448-0.98c-0.612-0.685,1.08-2.165,2.573-2.804c0.496-0.213,0.973-0.329,1.336-0.296
	c0.752,0.868,2.142,1.019,2.215-0.104C20.18,2.471,18.126,2,16.001,2c-3.051,0-5.952,0.969-8.353,2.762
	c0.645,0.296,1.012,0.664,0.39,1.134C7.555,7.335,5.595,9.267,3.875,8.994c-0.893,1.54-1.482,3.238-1.733,5.017
	c1.441,0.477,1.773,1.42,1.464,1.736c-0.734,0.64-1.185,1.548-1.418,2.541c0.469,2.87,1.818,5.515,3.915,7.612
	c2.644,2.644,6.16,4.1,9.899,4.1c3.739,0,7.255-1.456,9.898-4.1H25.898z"/>
</svg>
