<?xml version="1.0" encoding="utf-8"?>
<!-- Generator: Adobe Illustrator 16.0.0, SVG Export Plug-In . SVG Version: 6.00 Build 0)  -->
<!DOCTYPE svg PUBLIC "-//W3C//DTD SVG 1.1//EN" "http://www.w3.org/Graphics/SVG/1.1/DTD/svg11.dtd">
<svg version="1.1" id="Layer_1" xmlns="http://www.w3.org/2000/svg" xmlns:xlink="http://www.w3.org/1999/xlink" x="0px" y="0px"
	 width="32px" height="32px" viewBox="0 0 32 32" enable-background="new 0 0 32 32" xml:space="preserve">
<path fill="#FFFFFF" d="M26,14h-2V8c0-4.418-3.582-8-8-8S8,3.582,8,8v6H6c-1.1,0-2,0.9-2,2v14c0,1.1,0.9,2,2,2h20c1.1,0,2-0.9,2-2
	V16C28,14.9,27.1,14,26,14z M16,26c-1.105,0-2-0.895-2-2s0.895-2,2-2c1.105,0,2,0.895,2,2S17.105,26,16,26z M20,14h-8V8
	c0-2.206,1.794-4,4-4s4,1.794,4,4V14z"/>
</svg>
