<?xml version="1.0" encoding="utf-8"?>
<!-- Generator: Adobe Illustrator 16.0.0, SVG Export Plug-In . SVG Version: 6.00 Build 0)  -->
<!DOCTYPE svg PUBLIC "-//W3C//DTD SVG 1.1//EN" "http://www.w3.org/Graphics/SVG/1.1/DTD/svg11.dtd">
<svg version="1.1" id="Layer_1" xmlns="http://www.w3.org/2000/svg" xmlns:xlink="http://www.w3.org/1999/xlink" x="0px" y="0px"
	 width="32px" height="32px" viewBox="0 0 32 32" enable-background="new 0 0 32 32" xml:space="preserve">
<path fill="#FDB813" d="M31.12,31.12c-1.175,1.174-3.077,1.174-4.25,0l-5.304-5.304c-2.182,1.397-4.758,2.23-7.542,2.23
	C6.279,28.047,0,21.77,0,14.023C0.001,6.278,6.28,0,14.025,0c7.747,0,14.024,6.278,14.024,14.024c0,2.783-0.834,5.361-2.232,7.542
	l5.306,5.304C32.295,28.044,32.295,29.945,31.12,31.12L31.12,31.12z M14.024,4.007c-5.532,0-10.017,4.484-10.017,10.017
	s4.485,10.017,10.017,10.017c5.533,0,10.017-4.484,10.017-10.017S19.557,4.007,14.024,4.007z"/>
</svg>
