<?xml version="1.0" encoding="utf-8"?>
<!-- Generator: Adobe Illustrator 15.0.2, SVG Export Plug-In . SVG Version: 6.00 Build 0)  -->
<!DOCTYPE svg PUBLIC "-//W3C//DTD SVG 1.1//EN" "http://www.w3.org/Graphics/SVG/1.1/DTD/svg11.dtd">
<svg version="1.1" id="Livello_1" xmlns="http://www.w3.org/2000/svg" xmlns:xlink="http://www.w3.org/1999/xlink" x="0px" y="0px"
	 width="32px" height="32px" viewBox="0 0 32 32" enable-background="new 0 0 32 32" xml:space="preserve">
<path fill="#393A3C" d="M22,4h-4V2c0-1.1-0.9-2-2-2h-4c-1.1,0-2,0.9-2,2v2H6v4h16V4z M16,4h-4V2.004
	C12.001,2.003,12.002,2.002,12.004,2h3.993C15.998,2.001,16,2.002,16.001,2.004L16,4L16,4z M26,10V5c0-0.55-0.45-1-1-1h-2v2h1v4H12
	v14H4V6h1V4H3C2.45,4,2,4.45,2,5v20c0,0.55,0.45,1,1,1h9v6h14l6-6V10H26z M26,29.172V26h3.172L26,29.172z M30,24h-6v6H14V12h16V24z"
	/>
</svg>
