<?xml version="1.0" encoding="utf-8"?>
<!-- Generator: Adobe Illustrator 16.0.0, SVG Export Plug-In . SVG Version: 6.00 Build 0)  -->
<!DOCTYPE svg PUBLIC "-//W3C//DTD SVG 1.1//EN" "http://www.w3.org/Graphics/SVG/1.1/DTD/svg11.dtd">
<svg version="1.1" id="Layer_1" xmlns="http://www.w3.org/2000/svg" xmlns:xlink="http://www.w3.org/1999/xlink" x="0px" y="0px"
	 width="32px" height="32px" viewBox="0 0 32 32" enable-background="new 0 0 32 32" xml:space="preserve">
<path fill="#FFFFFF" d="M19.463,21.96c-0.691-0.11-0.707-2.01-0.707-2.01s2.03-2.011,2.473-4.713c1.19,0,1.926-2.873,0.735-3.884
	c0.05-1.064,1.53-8.354-5.964-8.354s-6.014,7.29-5.965,8.354c-1.19,1.011-0.455,3.884,0.735,3.884
	c0.442,2.703,2.473,4.713,2.473,4.713s-0.016,1.899-0.707,2.01C10.31,22.314,1.999,25.98,1.999,30h28
	C29.999,25.98,21.688,22.314,19.463,21.96L19.463,21.96z"/>
</svg>
