<?xml version="1.0" encoding="utf-8"?>
<!-- Generator: Adobe Illustrator 16.0.0, SVG Export Plug-In . SVG Version: 6.00 Build 0)  -->
<!DOCTYPE svg PUBLIC "-//W3C//DTD SVG 1.1//EN" "http://www.w3.org/Graphics/SVG/1.1/DTD/svg11.dtd">
<svg version="1.1" id="Layer_1" xmlns="http://www.w3.org/2000/svg" xmlns:xlink="http://www.w3.org/1999/xlink" x="0px" y="0px"
	 width="253px" height="253px" viewBox="0 0 253 253" enable-background="new 0 0 253 253" xml:space="preserve">
<path opacity="0.2" fill="#231F20" enable-background="new    " d="M253.158,125.318c0,69.759-56.553,126.313-126.317,126.313
	c-69.762,0-126.315-56.555-126.315-126.313C0.524,55.554,57.079-1,126.841-1C196.605-1,253.158,55.554,253.158,125.318z"/>
<g id="Your_Icon">
	<polygon fill="#FFFFFF" points="160.529,110.496 143.333,110.496 143.338,76.847 108.85,76.847 108.85,110.496 93.094,110.496 
		127.103,144.279 	"/>
	<polygon fill="#FFFFFF" points="160.558,140.067 160.558,156.928 93.125,156.928 93.125,140.067 76.265,140.067 76.265,173.783 
		177.42,173.783 177.42,140.067 	"/>
</g>
</svg>
